<svg xmlns="http://www.w3.org/2000/svg" width="48.404" height="48.452" viewBox="0 0 48.404 48.452"><defs><style>.a{fill:#f5f6f7;}</style></defs><g transform="translate(-57.644 -39.027)"><path class="a" d="M68.85,153.861v-4.293H57.644v4.293h2.571v9.184H57.644v4.293H68.85v-4.293H66.279v-9.184Z" transform="translate(0 -99.404)"/><path class="a" d="M190.571,154.752c-.693-.2-4.257-1.222-4.874-1.423s-1.121-.491-1.121-.856.567-.756,1.713-.756a6.93,6.93,0,0,1,5.351,2.229s.2.261.261.354h3.487v-6.081h-3.743v1.106a10.389,10.389,0,0,0-5.67-1.575c-4.32,0-6.725,2.242-6.725,5.591s3.035,4.735,3.879,5.088,4.143,1.285,5.554,1.725,1.927.756,1.927.982-.617.819-2.38.819a6.271,6.271,0,0,1-4.93-2.162v0c-.088-.118-.192-.258-.227-.311s-.135-.2-.2-.29h-3.487v6.494H183.3v-1.356a10.863,10.863,0,0,0,5.585,1.758c3.123,0,7.1-1.36,7.1-5.6S191.264,154.953,190.571,154.752Z" transform="translate(-109.355 -97.77)"/><path class="a" d="M359.449,147.157c-5.206,0-9.476,2.6-9.476,9.248s4.635,9.134,9.5,9.134,9.453-2.466,9.453-9.065S364.336,147.157,359.449,147.157Zm.046,13.952c-1.781,0-2.923-.411-2.923-4.727s.845-4.772,2.991-4.772c1.3,0,2.877.091,2.877,4.635S361.276,161.109,359.5,161.109Z" transform="translate(-262.878 -97.236)"/><g transform="translate(64.384 39.027)"><path class="a" d="M125.268,48.2a19.612,19.612,0,0,1,4.26-4.532,17.259,17.259,0,0,0,2.122,1.339C130.4,46.4,129.282,47.946,129.1,48.2h.749c.45-.606,1.38-1.826,2.361-2.907a19.443,19.443,0,0,0,3.4,1.287c-.317.672-.556,1.259-.7,1.62h.651c.15-.372.369-.892.642-1.466a21.74,21.74,0,0,0,4.733.61V48.2h.6v-.853a21.851,21.851,0,0,0,4.707-.541c.258.545.465,1.037.609,1.394h.651c-.135-.347-.361-.9-.659-1.541a19.6,19.6,0,0,0,3.466-1.254c.944,1.053,1.826,2.21,2.26,2.795h.749c-.18-.25-1.241-1.713-2.447-3.073a17.358,17.358,0,0,0,2.35-1.459,19.61,19.61,0,0,1,4.26,4.532h.727a20.034,20.034,0,0,0-33.674,0Zm10.61-2.173a18.929,18.929,0,0,1-3.24-1.2c.139-.144.278-.284.415-.417a30.864,30.864,0,0,1,4.211-3.154,7.462,7.462,0,0,0,1.333.567c-.37.485-1.1,1.468-1.885,2.716C136.4,45.032,136.125,45.542,135.878,46.03Zm5.06.713a21.174,21.174,0,0,1-4.459-.561c.224-.437.473-.888.743-1.313.91-1.437,1.732-2.517,2.005-2.868a9.313,9.313,0,0,0,1.71.236Zm.6,0v-4.5a9.438,9.438,0,0,0,1.7-.181c.313.4,1.1,1.445,1.958,2.806.284.448.545.923.778,1.382A21.279,21.279,0,0,1,141.543,46.746Zm5.04-.638a17.86,17.86,0,0,0-.873-1.562c-.749-1.183-1.441-2.129-1.825-2.637a7.752,7.752,0,0,0,1.422-.55,30.075,30.075,0,0,1,4.061,3.059c.172.166.345.342.519.526A19.078,19.078,0,0,1,146.583,46.108Zm6.14-2.815a16.859,16.859,0,0,1-2.265,1.374c-.223-.239-.448-.47-.67-.685a29.052,29.052,0,0,0-3.891-2.963,5.536,5.536,0,0,0,.818-.643A19.384,19.384,0,0,1,152.722,43.293Zm-11.344-3.662a19.42,19.42,0,0,1,4.633.559,8.118,8.118,0,0,1-9.268,0A19.419,19.419,0,0,1,141.378,39.631Zm-5.336.745a5.428,5.428,0,0,0,.652.533,29.806,29.806,0,0,0-4.06,3.073c-.186.18-.374.371-.561.568a16.783,16.783,0,0,1-2.039-1.257A19.38,19.38,0,0,1,136.042,40.376Z" transform="translate(-124.541 -39.027)"/><path class="a" d="M157.494,345.946a19.611,19.611,0,0,1-4.155,4.451,17.322,17.322,0,0,0-2.454-1.539c1.046-1.18,1.983-2.437,2.33-2.913h-.753c-.464.62-1.276,1.671-2.14,2.635a19.577,19.577,0,0,0-3.466-1.254c.256-.548.458-1.034.6-1.38H146.8c-.138.338-.322.766-.544,1.234a21.86,21.86,0,0,0-4.707-.541v-.693h-.6v.7a21.746,21.746,0,0,0-4.733.609c-.236-.5-.432-.95-.577-1.305h-.653c.144.363.359.879.633,1.46a19.415,19.415,0,0,0-3.4,1.287c-.9-.993-1.759-2.1-2.241-2.747h-.753c.358.491,1.348,1.819,2.438,3.033a17.251,17.251,0,0,0-2.227,1.418,19.605,19.605,0,0,1-4.155-4.451h-.726a20.034,20.034,0,0,0,33.674,0h-.726Zm-10.906,1.935a19.049,19.049,0,0,1,3.3,1.165c-.174.184-.348.361-.52.526a30.071,30.071,0,0,1-4.056,3.056,7.665,7.665,0,0,0-1.425-.551c.385-.509,1.075-1.453,1.822-2.633A17.833,17.833,0,0,0,146.587,347.881Zm-5.04-.637a21.3,21.3,0,0,1,4.434.494c-.233.459-.494.934-.778,1.383-.861,1.36-1.642,2.4-1.956,2.8a9.507,9.507,0,0,0-1.7-.179v-4.5Zm-.6,0v4.505a9.363,9.363,0,0,0-1.712.234c-.276-.354-1.094-1.43-2-2.865-.27-.426-.52-.876-.744-1.314A21.179,21.179,0,0,1,140.943,347.247Zm-5.061.712c.246.489.527,1,.834,1.485.79,1.247,1.515,2.23,1.884,2.715a7.386,7.386,0,0,0-1.333.567,30.874,30.874,0,0,1-4.21-3.153c-.138-.133-.276-.273-.416-.417A18.889,18.889,0,0,1,135.882,347.959Zm-5.953,2.817a16.729,16.729,0,0,1,2.148-1.338c.187.2.375.389.562.569a29.8,29.8,0,0,0,4.06,3.072,5.351,5.351,0,0,0-.775.657A19.391,19.391,0,0,1,129.929,350.776Zm11.454,3.742a19.415,19.415,0,0,1-4.779-.6,8.031,8.031,0,0,1,9.558,0A19.411,19.411,0,0,1,141.383,354.518Zm5.459-.781a5.454,5.454,0,0,0-.937-.768,29.019,29.019,0,0,0,3.887-2.961c.223-.215.448-.446.671-.685a16.83,16.83,0,0,1,2.374,1.454A19.386,19.386,0,0,1,146.842,353.737Z" transform="translate(-124.546 -315.025)"/></g><g transform="translate(57.795 80.048)"><path class="a" d="M60.147,451.824a1.145,1.145,0,0,0,.579,1.037,1.281,1.281,0,0,0,.624.151,1.4,1.4,0,0,0,1.108-.541,4.454,4.454,0,0,0,.649-2.2,1.679,1.679,0,0,1-.748.672,2.377,2.377,0,0,1-.959.194,2.148,2.148,0,0,1-1.649-.649,2.346,2.346,0,0,1-.607-1.67,2.671,2.671,0,0,1,.6-1.725,2.134,2.134,0,0,1,1.767-.744,2.173,2.173,0,0,1,2.175,1.419,5,5,0,0,1,.332,1.952,6.43,6.43,0,0,1-.4,2.344,2.3,2.3,0,0,1-2.235,1.7,2.164,2.164,0,0,1-1.606-.554,1.893,1.893,0,0,1-.549-1.389h.916Zm2.359-1.834a1.5,1.5,0,0,0,.446-1.239,1.583,1.583,0,0,0-.4-1.184,1.4,1.4,0,0,0-1.019-.389,1.332,1.332,0,0,0-1.055.445,1.738,1.738,0,0,0-.39,1.189,1.7,1.7,0,0,0,.342,1.118,1.337,1.337,0,0,0,1.092.415A1.544,1.544,0,0,0,62.505,449.99Z" transform="translate(-59.145 -446.337)"/><path class="a" d="M120.1,447.6a5.158,5.158,0,0,1,.483,2.442,5.88,5.88,0,0,1-.438,2.432,2.144,2.144,0,0,1-2.074,1.379,2.077,2.077,0,0,1-1.933-1.128,5.163,5.163,0,0,1-.529-2.527,6.247,6.247,0,0,1,.317-2.109,2.17,2.17,0,0,1,2.15-1.641A2.13,2.13,0,0,1,120.1,447.6Zm-.912,4.8a4.513,4.513,0,0,0,.418-2.326,5.739,5.739,0,0,0-.3-2.021,1.151,1.151,0,0,0-1.175-.793,1.228,1.228,0,0,0-1.172.753,5.188,5.188,0,0,0-.371,2.218,5.438,5.438,0,0,0,.237,1.772,1.289,1.289,0,0,0,2.365.4Z" transform="translate(-109.92 -446.427)"/><path class="a" d="M177.013,447.6a5.158,5.158,0,0,1,.483,2.442,5.88,5.88,0,0,1-.438,2.432,2.144,2.144,0,0,1-2.074,1.379,2.077,2.077,0,0,1-1.933-1.128,5.163,5.163,0,0,1-.529-2.527,6.247,6.247,0,0,1,.317-2.109,2.17,2.17,0,0,1,2.15-1.641A2.13,2.13,0,0,1,177.013,447.6Zm-.912,4.8a4.513,4.513,0,0,0,.419-2.326,5.739,5.739,0,0,0-.3-2.021,1.151,1.151,0,0,0-1.175-.793,1.228,1.228,0,0,0-1.172.753,5.188,5.188,0,0,0-.371,2.218,5.439,5.439,0,0,0,.237,1.772,1.289,1.289,0,0,0,2.365.4Z" transform="translate(-161.101 -446.427)"/><path class="a" d="M236.033,448.825v-.695a3.689,3.689,0,0,0,1.369-.32,1.576,1.576,0,0,0,.579-1.06h.715v7.179h-.967v-5.1h-1.7Z" transform="translate(-218.212 -446.696)"/><path class="a" d="M294.5,465.19h1.052v1.1H294.5Zm0,4.224h1.052v1.1H294.5Z" transform="translate(-270.786 -463.277)"/><path class="a" d="M315.169,451.816a3.118,3.118,0,0,1,1.306-1.253l.967-.559a4.543,4.543,0,0,0,.911-.645,1.412,1.412,0,0,0,.035-1.96,1.375,1.375,0,0,0-1.007-.371,1.315,1.315,0,0,0-1.289.707,2.536,2.536,0,0,0-.211,1.05h-.921a3.236,3.236,0,0,1,.347-1.535,2.18,2.18,0,0,1,2.079-1.047,2.139,2.139,0,0,1,2.381,2.16,2.026,2.026,0,0,1-.609,1.48,5.97,5.97,0,0,1-1.264.866l-.69.383a4.47,4.47,0,0,0-.775.518,1.888,1.888,0,0,0-.634.972h3.937v.856h-4.949A4.2,4.2,0,0,1,315.169,451.816Z" transform="translate(-289.029 -446.203)"/><path class="a" d="M376.189,447.6a5.158,5.158,0,0,1,.483,2.442,5.879,5.879,0,0,1-.438,2.432,2.144,2.144,0,0,1-2.074,1.379,2.077,2.077,0,0,1-1.933-1.128,5.164,5.164,0,0,1-.529-2.527,6.247,6.247,0,0,1,.317-2.109,2.17,2.17,0,0,1,2.15-1.641A2.13,2.13,0,0,1,376.189,447.6Zm-.912,4.8a4.513,4.513,0,0,0,.418-2.326,5.737,5.737,0,0,0-.3-2.021,1.151,1.151,0,0,0-1.175-.793,1.228,1.228,0,0,0-1.172.753,5.186,5.186,0,0,0-.371,2.218,5.436,5.436,0,0,0,.237,1.772,1.289,1.289,0,0,0,2.365.4Z" transform="translate(-340.21 -446.427)"/><path class="a" d="M435.208,448.825v-.695a3.69,3.69,0,0,0,1.369-.32,1.576,1.576,0,0,0,.579-1.06h.715v7.179H436.9v-5.1h-1.7Z" transform="translate(-397.321 -446.696)"/><path class="a" d="M486.567,452.9a1.256,1.256,0,0,0,.72,1.072,1.739,1.739,0,0,0,.745.151,1.4,1.4,0,0,0,1.193-.514,1.845,1.845,0,0,0,.388-1.138,1.487,1.487,0,0,0-.461-1.168,1.6,1.6,0,0,0-1.1-.413,1.664,1.664,0,0,0-.8.181,1.719,1.719,0,0,0-.571.5l-.785-.045.549-3.881h3.745v.876h-3.066l-.307,2a2.258,2.258,0,0,1,.478-.287,2.429,2.429,0,0,1,.931-.166,2.382,2.382,0,0,1,1.681.639,2.114,2.114,0,0,1,.69,1.621,2.782,2.782,0,0,1-.632,1.8,2.443,2.443,0,0,1-2.016.78,2.568,2.568,0,0,1-1.558-.5,1.967,1.967,0,0,1-.758-1.523h.942Z" transform="translate(-442.659 -447.506)"/></g></g></svg>